<?xml version="1.0" encoding="UTF-8" standalone="no"?>
<svg
   xmlns:dc="http://purl.org/dc/elements/1.1/"
   xmlns:cc="http://creativecommons.org/ns#"
   xmlns:rdf="http://www.w3.org/1999/02/22-rdf-syntax-ns#"
   xmlns:svg="http://www.w3.org/2000/svg"
   xmlns="http://www.w3.org/2000/svg"
   xmlns:sodipodi="http://sodipodi.sourceforge.net/DTD/sodipodi-0.dtd"
   xmlns:inkscape="http://www.inkscape.org/namespaces/inkscape"
   width="27px"
   height="32px"
   viewBox="0 0 27 32"
   version="1.1"
   id="svg2"
   inkscape:version="0.91 r13725"
   sodipodi:docname="ic-logo.svg">
  <metadata
     id="metadata36">
    <rdf:RDF>
      <cc:Work
         rdf:about="">
        <dc:format>image/svg+xml</dc:format>
        <dc:type
           rdf:resource="http://purl.org/dc/dcmitype/StillImage" />
      </cc:Work>
    </rdf:RDF>
  </metadata>
  <sodipodi:namedview
     pagecolor="#ffffff"
     bordercolor="#666666"
     borderopacity="1"
     objecttolerance="10"
     gridtolerance="10"
     guidetolerance="10"
     inkscape:pageopacity="0"
     inkscape:pageshadow="2"
     inkscape:window-width="1600"
     inkscape:window-height="837"
     id="namedview34"
     showgrid="false"
     inkscape:zoom="7.375"
     inkscape:cx="33.220536"
     inkscape:cy="5.8724651"
     inkscape:window-x="-8"
     inkscape:window-y="268"
     inkscape:window-maximized="1"
     inkscape:current-layer="svg2" />
  <!-- Generator: Sketch 41.2 (35397) - http://www.bohemiancoding.com/sketch -->
  <title
     id="title4">ic_home</title>
  <desc
     id="desc6">Created with Sketch.</desc>
  <defs
     id="defs8">
    <filter
       x="-50%"
       y="-50%"
       width="200%"
       height="200%"
       filterUnits="objectBoundingBox"
       id="filter-1">
      <feOffset
         dx="0"
         dy="2"
         in="SourceAlpha"
         result="shadowOffsetOuter1"
         id="feOffset11" />
      <feGaussianBlur
         stdDeviation="2"
         in="shadowOffsetOuter1"
         result="shadowBlurOuter1"
         id="feGaussianBlur13" />
      <feColorMatrix
         values="0 0 0 0 0   0 0 0 0 0   0 0 0 0 0  0 0 0 0.05 0"
         type="matrix"
         in="shadowBlurOuter1"
         result="shadowMatrixOuter1"
         id="feColorMatrix15" />
      <feMerge
         id="feMerge17">
        <feMergeNode
           in="shadowMatrixOuter1"
           id="feMergeNode19" />
        <feMergeNode
           in="SourceGraphic"
           id="feMergeNode21" />
      </feMerge>
    </filter>
  </defs>
  <g
     id="OPt-2"
     transform="matrix(1.4280032,0,0,1.3139072,-5.8208472,-2.0896166)"
     style="fill:none;fill-rule:evenodd;stroke:none;stroke-width:1">
    <g
       id="prog2_pro3_Mobile-Portrait_opt2-Copy-2"
       transform="translate(-10,-15)"
       style="fill:#000000">
      <g
         id="nav">
        <g
           id="Group-6"
           style="filter:url(#filter-1)">
          <g
             id="ic_home"
             transform="translate(14,17)">
            <g
               id="Group"
               transform="matrix(-1,0,0,1,19.2,0)">
              <path
                 d="M 1.5419362,6.8616831 2.4357116,7.5539286 3.8754543,8.6689525 C 4.0692301,7.699766 4.6302186,6.8666255 5.4061604,6.3248754 L 2.634525,4.178329 3.4928477,3.0392319 C 3.8436406,2.5734622 3.7557555,1.9073474 3.2963665,1.5514934 L 1.2069103,4.3228414 C 0.89754137,4.7333695 0.78950463,5.2349187 0.86395481,5.7077591 0.93355345,6.1503535 1.1628747,6.5680705 1.5419362,6.8616831 l 0,0 z"
                 id="Shape"
                 inkscape:connector-curvature="0" />
              <path
                 d="M 10.327055,16.55128 C 7.235694,14.930759 4.4828107,14.472533 3.788409,15.585499 c -0.5703178,0.913946 0.3999601,2.647244 2.299279,4.422352 l -1.8029443,2.932343 -1.2279614,0 C 2.4919686,22.955896 2.0385503,23.423747 2.0385503,24 l 1.5946144,0 2.1140865,0 0.6515786,-1.059806 1.0448209,-1.699435 0.4083563,-0.663845 C 7.7079586,20.337787 7.6242719,20.057418 7.6242719,19.756805 c 0,-0.870788 0.6962674,-1.576845 1.555337,-1.576845 0.047674,0 0.094229,0.0046 0.1407835,0.0087 l 1.0066626,-1.637384 0,0 z"
                 id="path30"
                 inkscape:connector-curvature="0" />
              <path
                 d="M 18.973629,6.452858 C 18.812228,5.6651215 18.124076,5.0729538 17.299155,5.0729538 c -0.235479,0 -0.459763,0.048431 -0.663707,0.1355499 -0.614915,0.2628942 -1.046781,0.8795141 -1.046781,1.5986949 l 0,8.2239934 c 0,0.585901 -0.468532,1.061223 -1.046782,1.061223 -0.42095,0 -0.783031,-0.252653 -0.949192,-0.615956 -0.01474,-0.03226 -0.02799,-0.06558 -0.03956,-0.09944 l -0.971957,-2.442335 1.886629,-6.4538272 c 0.0013,-0.00414 0.0031,-0.00849 0.0044,-0.012864 0.02295,-0.072268 0.0431,-0.1445363 0.06279,-0.2169937 C 15.222106,3.7220897 13.985562,1.0821292 11.673409,0 L 7.2297233,1.5664388 C 6.6842215,1.7553385 6.3925791,2.3556412 6.576092,2.9090027 L 7.7014281,2.5010287 C 8.146263,2.3397263 8.6356934,2.5745974 8.7947624,3.0254217 8.9538324,3.4762456 8.7221783,3.9726628 8.2774368,4.133871 L 7.1163685,4.5547806 C 7.3191009,5.0986827 7.9163818,5.3767822 8.4559119,5.1759878 L 9.6821005,4.71937 c 0.087045,0.5002248 -0.19023,1.005983 -0.6778886,1.1825857 L 6.6552065,6.7686051 c -0.9909888,0.4294464 -1.693881,1.4071467 -1.7425811,2.5566248 -0.00177,0.042188 -0.00466,0.084187 -0.00466,0.1267762 0,0.026084 0.00261,0.051648 0.00336,0.077566 -0.00466,-0.011942 -0.00765,-0.019864 -0.00765,-0.019864 l -3.6665305,0 0,-1.4334666 c 0,-0.4005961 -0.48859061,-0.7489777 -0.79824003,-0.9296473 l -0.24854034,-0.1316717 0,3.5129465 c 0.013248,0.988862 0.8068234,1.786554 1.78531087,1.786554 l 4.1356232,0 c 0.3662791,0 0.7222964,0.04417 1.0633863,0.127061 -0.016664,-0.0041 -0.033073,-0.01019 -0.049656,-0.01502 0.017866,0.0053 0.035755,0.01062 0.053948,0.01502 0.010635,0.0026 0.021365,0.0055 0.032094,0.0082 1.8431537,0.462459 3.2429661,2.064582 3.4293711,4.026888 0.0032,0.03424 0.0052,0.06884 0.0077,0.10346 0.0083,0.113699 0.01381,0.227965 0.01381,0.343746 0,1.104641 -0.38354,2.118286 -1.0226165,2.912313 -0.046835,0.05825 -0.095069,0.115401 -0.1446092,0.171188 -0.1305206,0.188614 -0.2078633,0.417905 -0.2078633,0.665926 0,0.641898 0.5134076,1.162343 1.146607,1.162343 0.227829,0 0.439984,-0.06735 0.618366,-0.183297 l 2.321483,-1.389172 c 0.320285,0.181616 0.536918,0.528176 0.536918,0.926619 0,0.26332 -0.0946,0.504529 -0.251339,0.68993 l -0.963375,1.060561 -1.175155,0 -5.6e-4,0 -0.05691,0 C 10.898306,22.955896 10.444888,23.423747 10.444888,24 l 2.093188,0 3.74e-4,0 1.263785,0 c 0,-1.000403 0.799827,-1.811243 1.786432,-1.811243 l 0,-3.089555 c -0.818671,-0.165346 -1.435824,-0.897273 -1.435824,-1.775864 0,-0.04406 0.0021,-0.08778 0.0051,-0.131269 0.104678,0.01587 0.210662,0.02684 0.319725,0.02684 0.406956,0 0.786111,-0.116348 1.110968,-0.314966 0.626575,-0.382933 1.046781,-1.077212 1.046781,-1.872751 l 0,-8.2239934 c 0,-0.3831914 0.306383,-0.6937124 0.68423,-0.6937124 0.364508,0 0.661656,0.289238 0.682182,0.6538183 -0.470026,0.3262232 -0.778649,0.8738383 -0.778649,1.4949981 0,1.0003072 0.799733,1.8111484 1.786432,1.8111484 l 0,-3.2662524 c 0,-0.1214559 -0.0125,-0.2397904 -0.03601,-0.3543406 l 0,0 z"
                 id="path32"
                 inkscape:connector-curvature="0" />
            </g>
          </g>
        </g>
      </g>
    </g>
  </g>
</svg>
